<svg width="24" height="24" viewBox="0 0 24 24" fill="none" xmlns="http://www.w3.org/2000/svg">
<path fill-rule="evenodd" clip-rule="evenodd" d="M14.8835 6.75118C14.8835 5.43812 13.8078 4.3704 12.4853 4.3704C11.1638 4.3704 10.087 5.43812 10.087 6.75118C10.087 8.06321 11.1638 9.13162 12.4853 9.13162C13.8078 9.13162 14.8835 8.06321 14.8835 6.75118ZM18.2774 6.75118C18.2774 9.92166 15.6803 12.5006 12.4853 12.5006C9.29099 12.5006 6.69313 9.92166 6.69313 6.75118C6.69313 3.57967 9.29099 1 12.4853 1C15.6803 1 18.2774 3.57967 18.2774 6.75118ZM18.207 15.8117C17.1597 16.4647 16.0226 16.9279 14.8436 17.1946L18.0815 20.4098C18.7449 21.067 18.7449 22.1344 18.0815 22.7923C17.4189 23.4502 16.3449 23.4502 15.683 22.7923L12.4994 19.6328L9.31863 22.7923C8.98696 23.1209 8.55237 23.2854 8.11778 23.2854C7.68388 23.2854 7.24998 23.1209 6.91831 22.7923C6.25568 22.1344 6.25568 21.0677 6.91762 20.4098L10.1559 17.1946C8.97691 16.9279 7.83983 16.4641 6.79251 15.8117C5.99991 15.3155 5.76182 14.276 6.26122 13.4883C6.75924 12.6997 7.80656 12.4622 8.60054 12.9584C10.9717 14.4394 14.0264 14.4398 16.399 12.9584C17.1929 12.4622 18.2399 12.6997 18.739 13.4883C19.2384 14.2753 18.9996 15.3155 18.207 15.8117Z" fill="white"/>
<mask id="mask0" mask-type="alpha" maskUnits="userSpaceOnUse" x="6" y="1" width="13" height="23">
<path fill-rule="evenodd" clip-rule="evenodd" d="M14.8835 6.75118C14.8835 5.43812 13.8078 4.3704 12.4853 4.3704C11.1638 4.3704 10.087 5.43812 10.087 6.75118C10.087 8.06321 11.1638 9.13162 12.4853 9.13162C13.8078 9.13162 14.8835 8.06321 14.8835 6.75118ZM18.2774 6.75118C18.2774 9.92166 15.6803 12.5006 12.4853 12.5006C9.29099 12.5006 6.69313 9.92166 6.69313 6.75118C6.69313 3.57967 9.29099 1 12.4853 1C15.6803 1 18.2774 3.57967 18.2774 6.75118ZM18.207 15.8117C17.1597 16.4647 16.0226 16.9279 14.8436 17.1946L18.0815 20.4098C18.7449 21.067 18.7449 22.1344 18.0815 22.7923C17.4189 23.4502 16.3449 23.4502 15.683 22.7923L12.4994 19.6328L9.31863 22.7923C8.98696 23.1209 8.55237 23.2854 8.11778 23.2854C7.68388 23.2854 7.24998 23.1209 6.91831 22.7923C6.25568 22.1344 6.25568 21.0677 6.91762 20.4098L10.1559 17.1946C8.97691 16.9279 7.83983 16.4641 6.79251 15.8117C5.99991 15.3155 5.76182 14.276 6.26122 13.4883C6.75924 12.6997 7.80656 12.4622 8.60054 12.9584C10.9717 14.4394 14.0264 14.4398 16.399 12.9584C17.1929 12.4622 18.2399 12.6997 18.739 13.4883C19.2384 14.2753 18.9996 15.3155 18.207 15.8117Z" fill="white"/>
</mask>
<g mask="url(#mask0)">
<rect width="24" height="24" rx="4" fill="#C7CCD1"/>
</g>
</svg>
